<?xml version="1.0" standalone="no"?>
<!DOCTYPE svg PUBLIC "-//W3C//DTD SVG 20010904//EN" "http://www.w3.org/TR/2001/REC-SVG-20010904/DTD/svg10.dtd">
<svg id="logo" version="1.0" xmlns="http://www.w3.org/2000/svg" width="512.000000pt" height="512.000000pt"
    viewBox="0 0 512.000000 512.000000" preserveAspectRatio="xMidYMid meet">
    <g transform="translate(0.000000,512.000000) scale(0.100000,-0.100000)" fill="none" stroke="white"
        stroke-width="200">
        <path
            d="M0 5066 c0 -17 79 -272 113 -366 55 -152 198 -438 287 -575 172 -263 264 -366 844 -945 l456 -455 323 323 322 322 -505 503 c-278 277 -554 543 -613 592 -314 255 -702 457 -1095 570 -131 37 -132 37 -132 31z" />
        <path
            d="M5021 5045 c-421 -120 -780 -303 -1116 -571 -75 -60 -497 -474 -1338 -1313 l-1227 -1226 -161 160 -160 160 -45 -49 c-176 -192 -195 -490 -45 -702 61 -86 578 -599 648 -643 184 -115 430 -112 610 9 32 21 71 52 88 69 l29 32 -159 159 -160 160 1211 1213 c666 666 1237 1244 1271 1282 166 193 296 392 413 630 105 213 189 438 234 628 8 32 13 32 -93 2z" />
        <path
            d="M3095 1970 l-320 -320 180 -180 180 -180 -160 -161 -160 -160 53 -49 c61 -54 152 -104 232 -125 71 -19 219 -19 290 0 133 35 166 61 469 360 160 158 305 310 332 349 68 96 99 197 99 319 0 150 -47 275 -140 379 l-49 53 -160 -160 -161 -160 -178 178 c-97 97 -179 177 -182 177 -3 0 -149 -144 -325 -320z" />
        <path
            d="M452 827 l-352 -352 213 -213 212 -212 353 353 353 353 -211 212 c-117 117 -213 212 -214 212 0 0 -160 -159 -354 -353z" />
        <path
            d="M4097 967 l-208 -211 353 -353 353 -353 212 212 213 213 -352 352 c-194 194 -355 352 -358 352 -3 -1 -99 -96 -213 -212z" />
    </g>
</svg>